{
    "asset" : {
        "generator" : "Khronos glTF Blender I/O v3.2.40",
        "version" : "2.0"
    },
    "scene" : 0,
    "scenes" : [
        {
            "name" : "Scene",
            "nodes" : [
                0
            ]
        }
    ],
    "nodes" : [
        {
            "mesh" : 0,
            "name" : "Kord Machine Gun",
            "rotation" : [
                0.7071068286895752,
                0,
                0,
                0.7071067094802856
            ],
            "scale" : [
                0.24564391374588013,
                0.24564391374588013,
                0.24564391374588013
            ]
        }
    ],
    "materials" : [
        {
            "doubleSided" : true,
            "name" : "KordMachine_GUN_M",
            "pbrMetallicRoughness" : {
                "baseColorFactor" : [
                    0.5881999731063843,
                    0.5881999731063843,
                    0.5881999731063843,
                    1
                ],
                "metallicFactor" : 0,
                "roughnessFactor" : 0.8999999761581421
            }
        },
        {
            "doubleSided" : true,
            "name" : "KORD_Machine_AMMO_M",
            "pbrMetallicRoughness" : {
                "baseColorTexture" : {
                    "index" : 0
                },
                "metallicFactor" : 0,
                "roughnessFactor" : 0.8211145401000977
            }
        }
    ],
    "meshes" : [
        {
            "name" : "Kord Machine Gun",
            "primitives" : [
                {
                    "attributes" : {
                        "POSITION" : 0,
                        "NORMAL" : 1,
                        "TEXCOORD_0" : 2
                    },
                    "indices" : 3,
                    "material" : 0
                },
                {
                    "attributes" : {
                        "POSITION" : 4,
                        "NORMAL" : 5,
                        "TEXCOORD_0" : 6
                    },
                    "indices" : 7,
                    "material" : 1
                }
            ]
        }
    ],
    "textures" : [
        {
            "sampler" : 0,
            "source" : 0
        }
    ],
    "images" : [
        {
            "bufferView" : 8,
            "mimeType" : "image/png",
            "name" : "Kord Machine Gun_Ammo_C"
        }
    ],
    "accessors" : [
        {
            "bufferView" : 0,
            "componentType" : 5126,
            "count" : 28070,
            "max" : [
                336.0539855957031,
                71.96800231933594,
                55.60049819946289
            ],
            "min" : [
                -336.0539855957031,
                -71.96800231933594,
                -55.60049819946289
            ],
            "type" : "VEC3"
        },
        {
            "bufferView" : 1,
            "componentType" : 5126,
            "count" : 28070,
            "type" : "VEC3"
        },
        {
            "bufferView" : 2,
            "componentType" : 5126,
            "count" : 28070,
            "type" : "VEC2"
        },
        {
            "bufferView" : 3,
            "componentType" : 5123,
            "count" : 121983,
            "type" : "SCALAR"
        },
        {
            "bufferView" : 4,
            "componentType" : 5126,
            "count" : 7812,
            "max" : [
                -110.34429931640625,
                -0.7031999826431274,
                6.955699920654297
            ],
            "min" : [
                -151.06219482421875,
                -33.377498626708984,
                -46.70289993286133
            ],
            "type" : "VEC3"
        },
        {
            "bufferView" : 5,
            "componentType" : 5126,
            "count" : 7812,
            "type" : "VEC3"
        },
        {
            "bufferView" : 6,
            "componentType" : 5126,
            "count" : 7812,
            "type" : "VEC2"
        },
        {
            "bufferView" : 7,
            "componentType" : 5123,
            "count" : 22620,
            "type" : "SCALAR"
        }
    ],
    "bufferViews" : [
        {
            "buffer" : 0,
            "byteLength" : 336840,
            "byteOffset" : 0
        },
        {
            "buffer" : 0,
            "byteLength" : 336840,
            "byteOffset" : 336840
        },
        {
            "buffer" : 0,
            "byteLength" : 224560,
            "byteOffset" : 673680
        },
        {
            "buffer" : 0,
            "byteLength" : 243966,
            "byteOffset" : 898240
        },
        {
            "buffer" : 0,
            "byteLength" : 93744,
            "byteOffset" : 1142208
        },
        {
            "buffer" : 0,
            "byteLength" : 93744,
            "byteOffset" : 1235952
        },
        {
            "buffer" : 0,
            "byteLength" : 62496,
            "byteOffset" : 1329696
        },
        {
            "buffer" : 0,
            "byteLength" : 45240,
            "byteOffset" : 1392192
        },
        {
            "buffer" : 0,
            "byteLength" : 271398,
            "byteOffset" : 1437432
        }
    ],
    "samplers" : [
        {
            "magFilter" : 9729,
            "minFilter" : 9987
        }
    ],
    "buffers" : [
        {
            "byteLength" : 1708832,
            "uri" : "data:application/octet-stream;base64,"
        }
    ]
}
